<svg id="Layer_1" data-name="Layer 1" xmlns="http://www.w3.org/2000/svg" viewBox="0 0 61.13 61.13"><defs><style>.cls-1{fill:#fff;}</style></defs><title>Artboard 1</title><path class="cls-1" d="M53.49,0H7.64A7.64,7.64,0,0,0,0,7.64V53.49a7.64,7.64,0,0,0,7.64,7.64H53.49a7.64,7.64,0,0,0,7.64-7.64V7.64A7.64,7.64,0,0,0,53.49,0ZM45.75,22.77q0,.51,0,1c0,10.35-7.89,22.3-22.3,22.3a22.23,22.23,0,0,1-12-3.52,16.47,16.47,0,0,0,1.87.11,15.78,15.78,0,0,0,9.74-3.36,7.85,7.85,0,0,1-7.33-5.44,8,8,0,0,0,1.48.14,7.82,7.82,0,0,0,2.06-.28A7.85,7.85,0,0,1,13,26.06a.31.31,0,0,1,0-.1,7.72,7.72,0,0,0,3.55,1,7.85,7.85,0,0,1-2.43-10.47,22.21,22.21,0,0,0,16.16,8.19,7.48,7.48,0,0,1-.21-1.78,7.84,7.84,0,0,1,13.56-5.36,15.8,15.8,0,0,0,5-1.91A7.89,7.89,0,0,1,45.16,20a15.39,15.39,0,0,0,4.5-1.24A15.57,15.57,0,0,1,45.75,22.77Z"/></svg>