<svg id="Layer_1" data-name="Layer 1" xmlns="http://www.w3.org/2000/svg" viewBox="0 0 61.13 61.13"><defs><style>.cls-1{fill:#fff;}</style></defs><title>Artboard 1</title><path class="cls-1" d="M47.16,18a7.17,7.17,0,0,0-4-4,12,12,0,0,0-3.95-.73c-2.25-.1-2.92-.12-8.6-.12s-6.36,0-8.61.12A12,12,0,0,0,18,14a7.17,7.17,0,0,0-4,4A12,12,0,0,0,13.24,22c-.1,2.25-.12,2.92-.12,8.61s0,6.35.12,8.6A12,12,0,0,0,14,43.12a7.17,7.17,0,0,0,4,4,12,12,0,0,0,3.95.73c2.25.1,2.92.12,8.61.12s6.35,0,8.6-.12a12,12,0,0,0,3.95-.73,7.17,7.17,0,0,0,4-4,12,12,0,0,0,.73-3.95c.1-2.25.12-2.92.12-8.6s0-6.36-.12-8.61A12,12,0,0,0,47.16,18ZM30.57,41.49A10.93,10.93,0,1,1,41.49,30.57,10.92,10.92,0,0,1,30.57,41.49ZM41.93,21.76a2.56,2.56,0,1,1,2.55-2.56A2.56,2.56,0,0,1,41.93,21.76Z"/><circle class="cls-1" cx="30.56" cy="30.57" r="7.09" transform="translate(-4.5 5.29) rotate(-9.22)"/><path class="cls-1" d="M53.49,0H7.64A7.64,7.64,0,0,0,0,7.64V53.49a7.64,7.64,0,0,0,7.64,7.64H53.49a7.64,7.64,0,0,0,7.64-7.64V7.64A7.64,7.64,0,0,0,53.49,0ZM51.72,39.34a15.47,15.47,0,0,1-1,5.17,10.83,10.83,0,0,1-6.22,6.22,15.47,15.47,0,0,1-5.17,1c-2.27.1-3,.13-8.77.13s-6.51,0-8.78-.13a15.47,15.47,0,0,1-5.17-1,10.83,10.83,0,0,1-6.22-6.22,15.47,15.47,0,0,1-1-5.17c-.1-2.27-.13-3-.13-8.77s0-6.51.13-8.78a15.47,15.47,0,0,1,1-5.17,10.83,10.83,0,0,1,6.22-6.22,15.47,15.47,0,0,1,5.17-1c2.27-.1,3-.13,8.78-.13s6.5,0,8.77.13a15.47,15.47,0,0,1,5.17,1,10.83,10.83,0,0,1,6.22,6.22,15.47,15.47,0,0,1,1,5.17c.1,2.27.13,3,.13,8.78S51.82,37.07,51.72,39.34Z"/></svg>