<svg id="Layer_1" data-name="Layer 1" xmlns="http://www.w3.org/2000/svg" viewBox="0 0 61.13 61.13"><defs><style>.cls-1{fill:#fff;}</style></defs><title>Artboard 1</title><path class="cls-1" d="M26.19,45l4.95-5h9.33l5.83-5.83V15.6h-28V40.08h7.87ZM37,22.3h3.5V32.49H37Zm-9.32,0h3.49V32.49H27.65Z"/><path class="cls-1" d="M53.48,0H7.64A7.64,7.64,0,0,0,0,7.64V53.48a7.65,7.65,0,0,0,7.64,7.65H53.48a7.66,7.66,0,0,0,7.65-7.65V7.64A7.65,7.65,0,0,0,53.48,0ZM49.79,36,39.59,46.2H32l-5,4.95H21.82V46.2H12.49V18.8l2.63-6.7H49.79Z"/></svg>