<svg id="Layer_1" data-name="Layer 1" xmlns="http://www.w3.org/2000/svg" viewBox="0 0 61.13 61.13"><defs><style>.cls-1{fill:#fff;}</style></defs><title>Artboard 1</title><path class="cls-1" d="M53.48,0H7.64A7.64,7.64,0,0,0,0,7.64V53.48a7.65,7.65,0,0,0,7.64,7.65H53.48a7.66,7.66,0,0,0,7.65-7.65V7.64A7.65,7.65,0,0,0,53.48,0ZM51.23,41a5.4,5.4,0,0,1-3.81,3.84c-3.37.91-16.86.91-16.86.91s-13.49,0-16.85-.91A5.43,5.43,0,0,1,9.89,41C9,37.63,9,30.56,9,30.56s0-7.06.9-10.45a5.43,5.43,0,0,1,3.82-3.84c3.36-.91,16.85-.91,16.85-.91s13.49,0,16.86.91a5.4,5.4,0,0,1,3.81,3.84c.91,3.39.91,10.45.91,10.45S52.14,37.63,51.23,41Z"/><polygon class="cls-1" points="26.15 36.98 37.43 30.56 26.15 24.15 26.15 36.98"/></svg>