<?xml version="1.0" encoding="utf-8"?>
<!-- Generator: Adobe Illustrator 26.0.1, SVG Export Plug-In . SVG Version: 6.00 Build 0)  -->
<svg version="1.1" id="Layer_1" xmlns="http://www.w3.org/2000/svg" xmlns:xlink="http://www.w3.org/1999/xlink" x="0px" y="0px"
	 viewBox="0 0 890.7 75.7" style="enable-background:new 0 0 890.7 75.7;" xml:space="preserve">
<style type="text/css">
	.st0{display:none;}
	.st1{clip-path:url(#SVGID_00000058587668164963645690000012633866953626700676_);fill:#231F20;}
</style>
<path class="st0" d="M280.5,58.7c-1.2,1.3-2.9,2-4.7,1.9H262v-5.6h13.8c0.8,0,1.1-0.4,1.1-1.1v-6c0,1.1-1,1.7-2.8,1.7h-11.1
	c-3.6,0.1-6.6-2.8-6.6-6.4c0,0,0,0,0,0v-13c0-1.8,0.7-3.5,1.9-4.7c1.2-1.3,3-2,4.7-1.9h11.1c1.8,0,2.7,0.5,2.8,1.6v-1.6h5.5V54
	C282.5,55.8,281.8,57.5,280.5,58.7z M277,30.3c0-0.7-0.4-1.1-1.1-1.1h-12.7c-0.5-0.1-1,0.3-1.1,0.8c0,0,0,0,0,0c0,0.1,0,0.2,0,0.3
	V43c0,0.8,0.4,1.1,1.1,1.1h12.7c0.5,0.1,1.1-0.3,1.1-0.9c0-0.1,0-0.2,0-0.3V30.3z"/>
<path class="st0" d="M291.7,49.6c-3.6,0.1-6.6-2.8-6.6-6.4c0,0,0,0,0,0V41c0-1.9,1-3.2,3.1-3.8l17.4-5.6v-0.8c0-1.1-0.4-1.6-1.1-1.6
	h-12.7c-0.5-0.1-1,0.3-1.1,0.8c0,0,0,0,0,0c0,0.1,0,0.2,0,0.3V33H285v-2.8c0-3.6,2.9-6.6,6.5-6.6h12.8c1.8,0,3.5,0.7,4.7,1.9
	c1.3,1.2,2,2.9,1.9,4.7v19.4H291.7z M305.5,37.1l-12.7,3.8c-1.5,0.4-2.3,1.1-2.3,2.1c-0.1,0.5,0.3,1,0.8,1.1c0,0,0,0,0,0
	c0.1,0,0.2,0,0.3,0h12.7c0.5,0.1,1.1-0.3,1.1-0.9c0-0.1,0-0.2,0-0.3L305.5,37.1z"/>
<path class="st0" d="M371.2,23.6c3.6-0.1,6.6,2.8,6.6,6.4c0,0,0,0,0,0v2.2c0,1.9-1,3.2-3.1,3.9l-17.4,5.5v0.7c0,1.1,0.4,1.6,1.1,1.6
	h12.7c0.5,0.1,1-0.3,1.1-0.8c0,0,0,0,0,0c0-0.1,0-0.2,0-0.3v-2.7h5.6V43c0,3.6-2.9,6.6-6.5,6.6h-12.9c-3.7,0-6.6-3-6.6-6.6
	c0,0,0,0,0,0V23.6H371.2z M357.4,36.1l12.7-3.8c1.5-0.4,2.3-1.1,2.3-2.1c0-0.5-0.4-1-0.9-1.1h-12.9c-0.5-0.1-1.1,0.3-1.1,0.9
	c0,0.1,0,0.2,0,0.3L357.4,36.1z"/>
<path class="st0" d="M343.7,49.6V30.3c0.1-0.5-0.3-1-0.8-1.1c0,0,0,0,0,0h-7.5c-0.5-0.1-1,0.3-1.1,0.8c0,0,0,0,0,0
	c0,0.1,0,0.2,0,0.3v19.4h-5.6V30.3c0.1-0.5-0.3-1-0.8-1.1c0,0,0,0,0,0h-7.5c-0.5-0.1-1,0.3-1.1,0.8c0,0,0,0,0,0c0,0.1,0,0.2,0,0.3
	v19.4h-5.6v-26h28.8c1.8,0,3.4,0.7,4.6,2c1.3,1.2,2,2.9,2,4.6v19.4H343.7z"/>
<path class="st0" d="M536,23.6c3.6-0.1,6.6,2.8,6.6,6.4c0,0,0,0,0,0v2.2c0,1.9-1,3.2-3.1,3.9l-17.4,5.5v0.7c0,1.1,0.4,1.6,1.1,1.6
	H536c0.5,0.1,1-0.3,1.1-0.8c0,0,0,0,0,0c0-0.1,0-0.2,0-0.3v-2.7h5.6V43c0,3.6-2.9,6.6-6.5,6.6h-12.8c-3.7,0-6.6-3-6.6-6.6
	c0,0,0,0,0,0V23.6H536z M522.2,36.1l12.7-3.8c1.5-0.4,2.3-1.1,2.3-2.1c0-0.5-0.4-1-0.9-1.1h-12.9c-0.5-0.1-1.1,0.3-1.1,0.9
	c0,0.1,0,0.2,0,0.3V36.1z"/>
<path class="st0" d="M385.9,28.6c-0.3,0.3-0.6,0.4-1,0.4h-2.7c-0.8,0-1.4-0.6-1.4-1.4c0,0,0,0,0,0v-2.8c0-0.8,0.6-1.4,1.4-1.4
	c0,0,0,0,0,0h2.7c0.8,0,1.4,0.6,1.4,1.4c0,0,0,0,0,0l0,0v2.7C386.3,28,386.2,28.4,385.9,28.6z"/>
<path class="st0" d="M380.7,49.6V31.8h5.6v17.8H380.7z"/>
<path class="st0" d="M410,49.6V30.3c0-0.7-0.4-1.1-1.1-1.1h-12.7c-0.5-0.1-1,0.3-1.1,0.8c0,0,0,0,0,0c0,0.1,0,0.2,0,0.3v19.4h-5.6
	v-26h19.4c3.6,0,6.6,2.9,6.6,6.5c0,0,0,0.1,0,0.1v19.4H410z"/>
<path class="st0" d="M427.8,18.9c-0.8,0-1.1,0.4-1.1,1.1v3.6h5.6v5.6h-5.6v20.4h-5.5V29.2h-4.4v-5.6h4.4V20c0-3.6,2.9-6.6,6.5-6.6
	h7.3v5.6H427.8z"/>
<path class="st0" d="M551.9,29.2c-0.8,0-1.1,0.4-1.1,1.1v19.4h-5.5V30.3c0-3.6,2.9-6.6,6.5-6.6h7.3v5.6H551.9z"/>
<path class="st0" d="M468.8,29.2c-0.8,0-1.1,0.4-1.1,1.1v19.4h-5.5V30.3c0-3.6,2.9-6.6,6.5-6.6h7.3v5.6H468.8z"/>
<path class="st0" d="M457.6,47.7c-1.2,1.3-2.9,2-4.7,1.9h-12.7c-3.6,0.1-6.6-2.8-6.6-6.4c0,0,0,0,0,0V30.3c0-3.6,2.9-6.6,6.5-6.6
	h12.9c1.8,0,3.5,0.7,4.7,1.9c1.3,1.2,2,2.9,1.9,4.7V43C459.6,44.8,458.9,46.5,457.6,47.7z M454,30.3c0-0.7-0.4-1.1-1.1-1.1h-12.7
	c-0.5-0.1-1,0.3-1.1,0.8c0,0,0,0,0,0c0,0.1,0,0.2,0,0.3V43c0,0.8,0.4,1.1,1.1,1.1h12.7c0.5,0.1,1.1-0.3,1.1-0.9c0-0.1,0-0.2,0-0.3
	V30.3z"/>
<path class="st0" d="M508.5,49.6V30.3c0.1-0.5-0.3-1-0.8-1.1c0,0,0,0,0,0h-7.5c-0.5-0.1-1,0.3-1.1,0.8c0,0,0,0,0,0
	c0,0.1,0,0.2,0,0.3v19.4h-5.6V30.3c0.1-0.5-0.3-1-0.8-1.1c0,0,0,0,0,0h-7.5c-0.5-0.1-1,0.3-1.1,0.8c0,0,0,0,0,0c0,0.1,0,0.2,0,0.3
	v19.4h-5.6v-26h28.8c1.8,0,3.4,0.7,4.6,2c1.3,1.2,2,2.9,2,4.6v19.4H508.5z"/>
<g>
	<g>
		<path d="M132.4,74.1l-3.5-9.8h-27.8l-3.5,9.8H73.8l28.7-72.5h25.2l28.7,72.5H132.4z M115.1,25.1l-7.4,20.7h14.6L115.1,25.1z"/>
		<path d="M247.6,74.1h-21.9V39.9L209,74.1h-10.7l-16.8-34.2v34.2h-21.9V1.6H184l19.6,39.7l19.7-39.7h24.3V74.1z"/>
		<path d="M314.8,74.1h-58.4V1.6h57.9v18.5h-35.5v9.4h29.6v16.7h-29.6v9.4h36V74.1z"/>
		<path d="M426.1,74.1h-18.3l-31.6-34.9v34.9h-22.4V1.6h18.4L403.8,38V1.6h22.3V74.1z"/>
		<path d="M457.3,32.3h29.2v19.1h-29.2v22.6H435V1.6h58.8v19.1h-36.5V32.3z"/>
		<path d="M572.9,37.9c0,21.2-17.3,37.9-39.3,37.9c-22.1,0-39.3-16.7-39.3-37.9S511.5,0,533.6,0C555.6,0,572.9,16.7,572.9,37.9z
			 M550.4,37.9c0-10.2-6.9-17.8-16.8-17.8c-9.8,0-16.9,7.7-16.9,17.8s7,17.8,16.9,17.8C543.5,55.7,550.4,48,550.4,37.9z"/>
		<path d="M619.3,74.1l-18.8-22.3v22.3h-22.4V1.6h39.6c15.7,0,26.2,10,26.2,24.8c0,11.5-6.4,20.1-16.8,23.7l20.6,24H619.3z
			 M600.5,34.5h12.3c5.6,0,9.1-2.9,9.1-7.6c0-4.2-3.5-7.1-9.1-7.1h-12.3V34.5z"/>
		<path d="M854.8,74.1l-18.8-22.3v22.3h-22.4V1.6h39.6c15.7,0,26.2,10,26.2,24.8c0,11.5-6.4,20.1-16.8,23.7l20.6,24H854.8z
			 M835.9,34.5h12.3c5.6,0,9.1-2.9,9.1-7.6c0-4.2-3.5-7.1-9.1-7.1h-12.3V34.5z"/>
		<path d="M738.6,74.1h-21.9V39.9L700,74.1h-10.7l-16.8-34.2v34.2h-21.9V1.6H675l19.6,39.7l19.7-39.7h24.3V74.1z"/>
		<path d="M805.8,74.1h-58.4V1.6h57.9v18.5h-35.5v9.4h29.6v16.7h-29.6v9.4h36V74.1z"/>
		<path d="M78,30.6c0.3,2.9,0.5,5.1,0.5,7.2c0,22.5-16.1,37.9-38.8,37.9C17.4,75.7,0,59.1,0,37.9S17.3,0,39.7,0
			C53.5,0,65,5.1,71.6,13.9L53,25.9c-3.5-4.5-7.8-5.9-13.3-5.9c-10.2,0-17.2,7.7-17.2,17.8s7.1,17.8,17.3,17.8
			c6.8,0,11.6-2.6,14.4-7.1H37.5v-18H78z"/>
		<polygon points="322.6,1.6 322.6,74.1 345,74.1 345,30.6 329.9,30.6 328.2,30.6 328.2,30.6 326.4,30.6 345,18.7 345,1.6 		"/>
	</g>
	<g>
		<defs>
			<rect id="SVGID_1_" x="885.3" y="69" width="5.5" height="5.5"/>
		</defs>
		<clipPath id="SVGID_00000027585026703562203970000014430213349851140770_">
			<use xlink:href="#SVGID_1_"  style="overflow:visible;"/>
		</clipPath>
		<path style="clip-path:url(#SVGID_00000027585026703562203970000014430213349851140770_);fill:#231F20;" d="M886.9,70.2v3h0.5V72
			h0.4c0.3,0,0.5,0,0.6,0.1c0.2,0.1,0.3,0.3,0.3,0.7V73l0,0.1c0,0,0,0,0,0c0,0,0,0,0,0h0.5l0,0c0,0,0-0.1,0-0.2c0-0.1,0-0.2,0-0.2
			v-0.2c0-0.2-0.1-0.3-0.2-0.5c-0.1-0.2-0.3-0.3-0.5-0.3c0.2,0,0.3-0.1,0.4-0.1c0.2-0.1,0.3-0.3,0.3-0.6c0-0.4-0.2-0.6-0.5-0.8
			c-0.2-0.1-0.4-0.1-0.8-0.1H886.9z M888.7,71.1c0,0.2-0.1,0.4-0.3,0.5c-0.1,0-0.3,0.1-0.5,0.1h-0.5v-1.1h0.5c0.3,0,0.5,0,0.6,0.1
			C888.6,70.7,888.7,70.9,888.7,71.1 M890.7,71.7c0-0.8-0.3-1.4-0.8-1.9c-0.5-0.5-1.2-0.8-1.9-0.8c-0.8,0-1.4,0.3-1.9,0.8
			c-0.5,0.5-0.8,1.2-0.8,1.9c0,0.8,0.3,1.4,0.8,1.9c0.5,0.5,1.2,0.8,1.9,0.8c0.8,0,1.4-0.3,1.9-0.8
			C890.4,73.1,890.7,72.4,890.7,71.7 M888,69.3c0.6,0,1.2,0.2,1.7,0.7c0.5,0.5,0.7,1,0.7,1.7c0,0.7-0.2,1.2-0.7,1.7
			c-0.5,0.5-1,0.7-1.7,0.7c-0.7,0-1.2-0.2-1.7-0.7c-0.5-0.5-0.7-1-0.7-1.7c0-0.6,0.2-1.2,0.7-1.7C886.8,69.6,887.3,69.3,888,69.3"/>
	</g>
</g>
</svg>
